<?xml version="1.0" standalone="no"?>
<!DOCTYPE svg PUBLIC "-//W3C//DTD SVG 20010904//EN"
 "http://www.w3.org/TR/2001/REC-SVG-20010904/DTD/svg10.dtd">
<svg version="1.0" xmlns="http://www.w3.org/2000/svg"
 width="958.000000pt" height="960.000000pt" viewBox="0 0 958.000000 960.000000"
 preserveAspectRatio="xMidYMid meet">

<g transform="translate(0.000000,960.000000) scale(0.100000,-0.100000)"
fill="#fff" stroke="none">
<path d="M8736 7696 c-46 -21 -97 -76 -125 -136 -27 -59 -30 -92 -21 -306 5
-131 3 -134 -100 -134 -87 0 -158 -20 -235 -68 -28 -17 -63 -34 -80 -37 -79
-18 -173 -59 -203 -88 -19 -18 -47 -58 -63 -89 -16 -32 -43 -68 -60 -80 -18
-13 -56 -60 -85 -105 -32 -49 -65 -88 -83 -98 -36 -18 -60 -85 -66 -180 -2
-33 -9 -94 -16 -135 -24 -155 1 -300 81 -473 31 -68 60 -143 60 -157 0 -5 -21
-20 -46 -35 -59 -35 -74 -69 -67 -158 5 -60 4 -67 -11 -61 -9 3 -16 15 -16 25
0 10 -5 19 -11 19 -8 0 -10 -13 -5 -37 3 -21 6 -46 6 -55 0 -21 27 -36 89 -52
38 -9 47 -15 49 -37 2 -16 -6 -35 -23 -53 -23 -25 -30 -27 -68 -21 -34 6 -40
5 -29 -6 6 -7 12 -28 12 -46 0 -32 1 -33 45 -33 25 0 54 5 65 12 10 7 22 9 26
5 4 -3 -1 -51 -10 -105 -9 -54 -16 -127 -16 -162 0 -36 -7 -87 -15 -114 -18
-59 -20 -247 -4 -328 11 -52 10 -58 -20 -115 -41 -83 -87 -240 -106 -370 -60
-399 -96 -581 -119 -595 -6 -4 -21 -8 -34 -8 -56 0 -217 -141 -275 -240 -42
-72 -57 -127 -72 -255 -11 -96 -21 -138 -50 -209 -38 -91 -57 -175 -95 -421
-43 -277 -78 -404 -134 -476 -72 -95 -82 -144 -43 -219 l22 -45 145 -1 c85 -1
163 -7 190 -14 94 -27 224 -9 260 37 20 26 27 68 11 77 -4 3 -17 -1 -27 -9
-28 -22 -54 -18 -122 16 -74 37 -154 122 -177 187 -44 130 -2 263 160 510 79
122 159 269 214 398 100 235 96 229 202 287 113 62 146 116 148 241 1 38 7 70
19 90 11 17 33 67 51 112 26 67 43 91 97 145 63 62 74 79 149 244 33 72 102
236 109 262 4 11 14 24 22 27 17 7 34 -9 154 -142 51 -57 106 -105 170 -147
87 -58 126 -91 144 -122 3 -6 13 -48 22 -94 8 -45 22 -99 30 -119 14 -35 14
-43 -6 -107 -11 -37 -25 -100 -30 -138 -5 -39 -21 -112 -36 -164 -35 -122 -31
-253 9 -343 25 -56 26 -63 25 -265 -1 -133 3 -237 12 -288 7 -44 13 -125 13
-180 0 -84 -5 -111 -27 -168 -29 -74 -34 -148 -12 -166 10 -9 86 -11 274 -9
247 3 262 4 289 24 31 23 49 63 40 88 -6 14 -10 14 -42 0 -45 -18 -49 -16
-188 95 -182 145 -185 167 -96 615 47 236 59 335 69 581 10 251 22 332 66 415
24 46 28 67 29 130 0 71 -2 79 -41 140 -46 74 -68 129 -85 215 -28 148 -58
225 -137 352 -26 43 -56 96 -66 118 -80 175 -122 237 -230 345 -37 35 -66 71
-66 80 0 25 56 135 101 198 41 59 41 60 50 180 9 128 21 172 68 230 15 21 45
69 65 109 19 40 49 87 66 106 50 58 55 75 84 297 2 19 16 68 31 108 48 135 31
320 -48 507 -37 90 -30 132 48 278 58 108 76 133 118 163 51 37 97 117 97 169
0 22 -32 101 -78 192 -13 26 -14 35 -4 45 20 20 14 37 -28 87 -22 26 -45 63
-52 83 -12 35 -105 141 -151 173 -26 18 -110 19 -151 1z m-701 -1278 c5 -13
16 -346 18 -538 1 -98 0 -108 -27 -153 -33 -56 -60 -77 -98 -77 -21 0 -29 6
-32 23 -5 22 -17 250 -15 297 0 14 2 100 3 191 l3 166 33 42 c19 23 47 45 64
50 43 13 46 13 51 -1z"/>
<path d="M1926 6723 c-537 -3 -692 -6 -698 -16 -4 -6 -8 -31 -8 -54 l0 -43
130 0 c123 0 130 -1 141 -22 14 -26 8 -165 -15 -343 -9 -66 -30 -230 -46 -365
-29 -238 -41 -322 -115 -805 -19 -126 -55 -372 -80 -545 -67 -456 -96 -595
-155 -745 -81 -204 -233 -378 -360 -412 -19 -6 -41 -8 -48 -5 -7 2 -32 43 -56
90 -46 91 -91 143 -139 161 -106 40 -197 -38 -184 -157 7 -61 53 -131 112
-167 46 -29 53 -30 159 -30 115 1 181 14 275 58 232 106 444 355 535 629 14
40 36 134 50 208 29 150 116 712 147 945 11 83 33 236 49 340 16 105 48 314
70 465 81 541 100 665 106 683 5 15 24 17 210 17 l204 0 10 -26 c29 -75 11
-238 -125 -1134 -18 -124 -36 -250 -40 -280 -3 -30 -11 -80 -16 -110 -5 -30
-43 -298 -84 -595 -41 -297 -78 -558 -81 -580 -9 -64 -24 -104 -44 -115 -10
-6 -70 -10 -133 -10 -127 0 -127 0 -127 -66 l0 -34 145 0 c80 0 266 -7 413
-16 303 -18 402 -12 524 32 272 98 469 328 553 647 66 252 55 463 -33 632 -45
86 -173 219 -254 265 -32 17 -58 36 -58 41 0 4 33 34 73 66 198 158 361 391
416 593 78 293 40 546 -104 694 -92 95 -175 117 -436 114 -107 -2 -504 -4
-883 -5z m917 -142 c118 -46 218 -174 262 -336 23 -85 30 -246 16 -345 -37
-251 -161 -500 -292 -587 -40 -26 -40 -26 -134 -15 -52 7 -157 12 -235 12
-116 0 -142 3 -146 15 -4 8 1 59 10 113 8 53 40 264 71 467 108 718 100 680
149 695 55 17 234 5 299 -19z m-288 -1377 c129 -33 274 -151 342 -280 56 -106
77 -200 76 -354 0 -156 -18 -264 -68 -411 -110 -323 -324 -472 -619 -430 -43
6 -98 20 -121 30 -40 18 -44 23 -51 68 -9 58 8 250 41 468 88 588 137 901 142
908 18 30 141 30 258 1z"/>
<path d="M4053 5899 c-42 -12 -69 -49 -83 -112 -6 -29 -31 -187 -55 -352 -25
-165 -47 -315 -50 -333 l-6 -33 58 3 58 3 16 100 c9 55 24 150 33 210 30 197
19 175 87 175 32 0 60 4 63 8 2 4 8 35 11 69 l7 62 -53 3 c-42 2 -55 7 -57 21
-4 20 50 47 96 47 27 0 30 3 36 46 13 97 15 94 -61 93 -38 0 -82 -5 -100 -10z"/>
<path d="M4315 5888 c-3 -13 -6 -43 -7 -68 l-3 -45 45 -3 c25 -1 50 1 57 6 6
4 15 35 19 70 l7 62 -57 0 c-49 0 -56 -2 -61 -22z"/>
<path d="M4525 5898 c-2 -7 -6 -35 -10 -63 -3 -27 -12 -90 -20 -140 -43 -269
-75 -500 -75 -536 0 -29 7 -46 25 -64 22 -23 32 -25 108 -25 95 0 91 -3 102
83 l7 57 -51 0 c-46 0 -51 2 -57 25 -6 24 5 124 27 252 l11 63 58 0 c33 0 61
4 64 8 2 4 8 35 11 69 l7 62 -53 3 -54 3 0 40 c0 22 4 70 9 108 l8 67 -57 0
c-36 0 -57 -4 -60 -12z"/>
<path d="M4286 5683 c-5 -17 -51 -320 -76 -498 -6 -44 -13 -88 -16 -97 -5 -16
2 -18 55 -18 34 0 61 3 61 8 0 4 20 141 45 305 25 164 45 302 45 307 0 6 -24
10 -54 10 -43 0 -56 -4 -60 -17z"/>
<path d="M4853 5692 c-13 -2 -23 -5 -23 -6 0 -2 -20 -138 -45 -304 -25 -165
-45 -303 -45 -306 0 -3 26 -6 58 -6 l57 0 33 218 c18 120 40 227 48 240 13 20
22 22 108 22 120 0 126 -3 126 -50 0 -31 -31 -251 -55 -397 l-6 -33 59 0 58 0
23 148 c12 81 29 190 37 243 33 208 17 231 -155 233 -99 0 -113 -2 -140 -22
-37 -27 -39 -27 -43 -1 -2 17 -11 22 -38 23 -19 1 -45 0 -57 -2z"/>
<path d="M5510 5688 c-79 -22 -102 -73 -136 -295 -34 -229 -35 -280 -5 -304
21 -17 42 -19 216 -19 l194 0 6 48 c14 96 29 87 -142 90 -187 3 -180 -4 -157
149 24 168 28 180 71 194 42 13 158 6 179 -12 15 -12 18 -46 8 -73 -5 -13 -23
-16 -89 -16 -46 0 -86 -3 -88 -7 -3 -5 -8 -36 -12 -71 l-7 -63 143 3 144 3 17
105 c21 127 23 220 5 244 -7 9 -30 21 -52 26 -52 12 -250 11 -295 -2z"/>
<path d="M6075 5693 c-46 -10 -72 -25 -87 -51 -23 -40 -41 -128 -42 -204 -1
-61 2 -70 27 -95 27 -27 31 -28 164 -33 152 -6 167 -12 147 -67 l-9 -28 -185
-5 -185 -5 -6 -30 c-4 -16 -7 -47 -8 -67 l-1 -38 209 0 209 0 31 26 c32 27 44
58 60 164 12 77 2 132 -30 166 -22 23 -28 24 -156 24 -132 0 -134 0 -145 25
-9 19 -8 29 6 50 19 29 8 28 208 30 87 1 160 3 162 6 3 2 6 34 8 69 l3 65
-180 1 c-99 1 -189 0 -200 -3z"/>
<path d="M6630 5689 c-25 -5 -53 -18 -62 -30 -40 -48 -69 -220 -48 -283 18
-56 48 -66 193 -66 129 0 147 -6 147 -44 -1 -49 -8 -51 -202 -56 l-183 -5 -11
-63 c-9 -50 -9 -65 1 -68 7 -3 106 -4 220 -2 l207 3 23 28 c33 37 45 85 52
192 5 87 4 92 -20 120 -25 30 -25 30 -163 35 -149 5 -163 11 -151 62 10 39 42
46 213 47 87 1 162 5 166 9 4 4 9 34 10 67 l3 60 -175 2 c-96 1 -195 -3 -220
-8z"/>
<path d="M3656 5608 c-3 -13 -17 -104 -31 -203 -30 -210 -49 -334 -75 -500
-11 -66 -22 -142 -25 -170 -3 -27 -12 -88 -20 -135 -15 -90 -65 -421 -68 -455
-2 -17 3 -20 38 -17 22 2 43 6 46 10 7 7 23 113 54 357 13 95 35 236 51 313
l4 22 1754 0 c1663 0 1755 -1 1758 -17 2 -10 -2 -49 -9 -88 -11 -70 -40 -259
-72 -477 l-18 -118 26 -1 c30 -2 54 1 60 7 2 2 13 61 23 132 10 70 32 215 48
322 26 177 42 283 125 835 33 222 34 207 -17 203 l-43 -3 -12 -95 c-7 -52 -19
-138 -27 -190 -8 -52 -25 -162 -37 -245 -12 -82 -26 -156 -32 -163 -8 -9 -366
-12 -1756 -10 l-1746 3 2 61 c1 34 13 137 27 230 71 457 69 414 16 414 -33 0
-40 -4 -44 -22z"/>
<path d="M3505 5348 c-3 -7 -20 -119 -40 -248 -44 -296 -62 -412 -80 -524 -16
-97 -19 -176 -7 -176 27 1 35 34 73 286 21 148 53 356 69 463 23 153 27 197
17 203 -17 11 -27 10 -32 -4z"/>
<path d="M7366 5233 c-9 -65 -20 -143 -26 -173 -5 -30 -21 -136 -35 -235 -14
-99 -35 -233 -45 -298 -11 -65 -20 -120 -20 -123 0 -2 10 -2 22 0 26 3 24 -4
63 261 14 99 42 279 61 401 40 260 41 284 15 284 -16 0 -21 -15 -35 -117z"/>
<path d="M5645 4688 c-2 -7 -20 -123 -40 -258 -20 -135 -43 -288 -51 -340 -30
-203 -21 -222 113 -228 102 -5 94 -12 108 90 l7 47 -47 3 c-69 4 -72 12 -50
169 24 183 22 179 89 179 30 0 57 4 60 8 2 4 8 36 12 70 l7 62 -58 0 -58 0 6
68 c4 37 9 84 13 105 l7 37 -57 0 c-36 0 -58 -4 -61 -12z"/>
<path d="M4030 4477 c-56 -19 -74 -70 -110 -310 -19 -120 -29 -223 -26 -242
11 -56 22 -60 212 -63 l172 -4 5 29 c3 15 9 47 12 71 l7 42 -125 0 c-132 0
-157 8 -157 49 0 21 29 217 37 249 10 44 38 52 170 52 67 0 124 4 127 8 2 4 8
36 12 70 l7 62 -154 -1 c-92 0 -168 -5 -189 -12z"/>
<path d="M4524 4471 c-65 -39 -73 -62 -109 -311 -30 -211 -31 -241 -6 -271 19
-24 23 -24 214 -27 221 -4 200 -12 212 86 l7 52 -144 0 c-179 0 -184 2 -175
86 26 248 35 264 152 264 98 0 115 -9 115 -60 0 -25 -5 -41 -12 -42 -42 -4
-59 -6 -109 -7 l-56 -1 -10 -62 c-6 -35 -9 -66 -6 -70 2 -5 66 -8 142 -8 l139
0 5 28 c25 131 39 274 31 304 -15 51 -40 58 -209 58 -130 0 -154 -3 -181 -19z"/>
<path d="M5033 4478 c-10 -13 -94 -551 -93 -595 0 -21 5 -23 55 -23 49 0 55 2
59 23 2 12 18 114 35 227 20 131 36 209 46 219 17 17 115 26 180 17 35 -6 46
-12 50 -29 3 -12 -6 -98 -20 -192 -14 -93 -28 -191 -32 -217 l-6 -48 56 0 c64
0 54 -20 86 180 64 400 63 421 -12 441 -22 6 -84 9 -138 7 -85 -3 -101 -6
-121 -26 -26 -23 -38 -21 -38 10 0 15 -8 18 -49 18 -27 0 -53 -6 -58 -12z"/>
<path d="M6013 4472 c-38 -20 -61 -49 -74 -95 -17 -56 -67 -421 -62 -449 3
-15 14 -35 25 -45 18 -16 41 -18 211 -18 l191 0 6 25 c4 14 10 44 13 67 l7 42
-154 3 c-85 2 -158 7 -163 11 -11 12 -7 86 12 191 8 49 15 93 15 97 0 5 9 18
20 29 17 17 33 20 104 20 94 0 116 -11 116 -59 0 -43 -17 -51 -101 -51 l-77 0
-11 -50 c-21 -97 -30 -91 131 -88 l143 3 17 105 c9 58 17 135 17 171 1 101 -4
103 -198 106 -133 3 -161 0 -188 -15z"/>
<path d="M6500 4465 c-6 -15 -10 -34 -10 -45 0 -10 -18 -133 -40 -275 -22
-142 -40 -264 -40 -272 0 -11 13 -13 57 -11 l58 3 17 115 c9 63 22 151 28 195
16 117 30 155 58 166 13 5 61 9 107 9 l84 0 5 33 c3 17 7 48 8 67 l3 35 -60 3
c-72 4 -94 -1 -126 -29 l-24 -21 -5 24 c-5 20 -13 23 -58 26 -48 3 -53 1 -62
-23z"/>
</g>
</svg>
